<svg width="70" height="70" viewBox="0 0 70 70" fill="none" xmlns="http://www.w3.org/2000/svg">
<path fill-rule="evenodd" clip-rule="evenodd" d="M27.0391 24.5447L24 27.299C26.153 29.9813 29.0679 32.2012 32.6432 32.9122V37.0729H36.7448V33.1953C40.6499 32.9283 44.6114 29.9827 45.2759 26.0679C46.2031 20.7528 41.5422 17.5712 36.7448 16.0966V8.04111C38.817 8.25576 41.1512 9.91621 42.8367 11.3608L45.3812 8.14379C43.0233 5.95479 39.19 3.96922 36.7446 3.90523V0H32.6431V4.13588C29.4197 4.82631 26.7691 7.38732 26.3383 10.5287C25.9462 15.0376 28.0528 17.2754 32.6431 18.8699V28.6821C29.0475 27.7147 27.0391 24.5447 27.0391 24.5447ZM30.3952 11.1325C30.5737 9.93248 31.4002 8.95275 32.6431 8.43158V14.4205C30.345 13.6691 30.2269 12.2622 30.3952 11.1325ZM36.7446 29.0698C39.3044 28.7001 41.238 27.0044 41.238 25.3468C41.238 22.0012 37.2316 20.6514 36.7815 20.4998C36.7631 20.4936 36.7507 20.4894 36.7446 20.4872V29.0698Z" fill="white"/>
<path fill-rule="evenodd" clip-rule="evenodd" d="M62.9394 56.4696V48.9628L63.8468 49.5072L65.9572 45.9901L51.4746 37.3007L36.992 45.9903L39.1024 49.5074L40.0098 48.963V56.4698H29.9904V48.963L30.8978 49.5074L33.0081 45.9903L18.5254 37.3007L4.04277 45.9903L6.15316 49.5074L7.06057 48.963V56.4698H0V60.5713H70V56.4698H62.9394V56.4696ZM20.5762 56.4696V51.4598H16.4746V56.4696H11.1621V46.5019L18.5254 42.0838L25.8887 46.5019V56.4696H20.5762ZM53.5254 51.4598V56.4696H58.8379V46.5019L51.4746 42.0838L44.1113 46.5019V56.4696H49.4238V51.4598H53.5254Z" fill="white"/>
<path d="M0 65.8837H70V69.9852H0V65.8837Z" fill="white"/>
</svg>
