<svg width="78" height="78" viewBox="0 0 78 78" fill="none" xmlns="http://www.w3.org/2000/svg">
<g filter="url(#filter0_dd_1_11)">
<path fill-rule="evenodd" clip-rule="evenodd" d="M48.1291 9.47871H74V46.5295H48.1293V70H29.8709V46.5295H4V9.47871H29.8709V5.4775L39 0L48.1291 5.4775V9.47871ZM39 4.78311L33.9724 7.79967H33.9723V9.47857H44.0276V7.79967L39 4.78311ZM44.0276 65.8984H33.9723V46.5295H44.0276V65.8984ZM8.10156 42.4279H69.8984V13.5803H8.10156V42.4279Z" fill="#F78434"/>
<path fill-rule="evenodd" clip-rule="evenodd" d="M31.0711 33.2503L29.5652 37.2042L25.7323 35.7444L32.1006 19.0239L35.5056 19.0203L41.82 35.7525L37.9827 37.2006L36.4919 33.2503H31.0711ZM32.6334 29.1487H34.9441L33.7942 26.1012L32.6334 29.1487Z" fill="#F78434"/>
<path d="M52.2624 32.5098H47.473V18.8439H43.3715V36.6114H52.2624V32.5098Z" fill="#F78434"/>
<path d="M64.4445 32.5098H58.7341V29.8352H64.0234V25.7336H58.7341V23.0589H64.4445V18.9573H54.6326V36.6114H64.4445V32.5098Z" fill="#F78434"/>
<path d="M18.4225 23.0677C19.9685 22.382 22.2923 24.0498 23.5359 25.1699L26.0805 21.9531C22.3441 18.535 19.2095 18.5089 17.2177 19.1469C15.2329 19.7463 13.8246 21.3158 13.5357 23.2572C13.2583 25.121 14.0587 26.9132 15.6248 27.9341C15.8963 28.1112 17.7677 28.911 20.014 29.7537C20.8487 30.0615 21.7008 30.6126 21.5895 31.2357C21.4978 31.7495 20.7818 32.5097 19.536 32.5097C17.5222 32.6266 16.0289 30.9844 14.9122 29.6363L11.8731 32.3906C13.7497 34.7915 16.2987 36.6792 19.5362 36.6112C22.584 36.6112 25.1457 34.6537 25.6274 31.9566C25.9922 29.9138 25.082 27.2512 21.4334 25.9055C19.813 25.3077 18.3002 24.6581 17.7752 24.4289C17.4051 23.9654 17.5457 23.4259 18.4225 23.0677V23.0677Z" fill="#F78434"/>
</g>
<defs>
<filter id="filter0_dd_1_11" x="0" y="0" width="78" height="78" filterUnits="userSpaceOnUse" color-interpolation-filters="sRGB">
<feFlood flood-opacity="0" result="BackgroundImageFix"/>
<feColorMatrix in="SourceAlpha" type="matrix" values="0 0 0 0 0 0 0 0 0 0 0 0 0 0 0 0 0 0 127 0" result="hardAlpha"/>
<feOffset dy="4"/>
<feGaussianBlur stdDeviation="2"/>
<feComposite in2="hardAlpha" operator="out"/>
<feColorMatrix type="matrix" values="0 0 0 0 0 0 0 0 0 0 0 0 0 0 0 0 0 0 0.25 0"/>
<feBlend mode="normal" in2="BackgroundImageFix" result="effect1_dropShadow_1_11"/>
<feColorMatrix in="SourceAlpha" type="matrix" values="0 0 0 0 0 0 0 0 0 0 0 0 0 0 0 0 0 0 127 0" result="hardAlpha"/>
<feOffset dy="4"/>
<feGaussianBlur stdDeviation="2"/>
<feComposite in2="hardAlpha" operator="out"/>
<feColorMatrix type="matrix" values="0 0 0 0 0 0 0 0 0 0 0 0 0 0 0 0 0 0 0.25 0"/>
<feBlend mode="normal" in2="effect1_dropShadow_1_11" result="effect2_dropShadow_1_11"/>
<feBlend mode="normal" in="SourceGraphic" in2="effect2_dropShadow_1_11" result="shape"/>
</filter>
</defs>
</svg>
